# xmcd
#
# Track frame offsets:
#	150
#	14440
#	29957
#	51073
#	64019
#	82451
#	97535
#	113675
#	126116
#	138841
#	153492
#	173911
#
# Disc length: 2559 seconds
#
# Revision: 1
# Processed by: cddbd v1.5.2PL0 Copyright (c) Steve Scherf et al.
# Submitted via: EasyCDDAExtractor 10.0.6.1
#
DISCID=9d09fd0c
DTITLE=June Carter Cash - Anchored In Love (A Tribute To)
DYEAR=2007
DGENRE=Country
TTITLE0=Sheryl Crow - If I Were A Carpenter
TTITLE1=Carlene Carter - Jackson
TTITLE2=Loretta Lynn - Wildwood Flower
TTITLE3=Patty Loveless - Far Side Banks Of Jordan
TTITLE4=Brad Paisley - Keep On The Sunny Side
TTITLE5=Rosanne Cash - Wings Of Angels
TTITLE6=Elvis Costello - Ring Of Fire
TTITLE7=The Peasall Sisters - Road To Kaintuck
TTITLE8=Grey Delisle - Big Yellow Peaches
TTITLE9=Billy Joe Shaver - Kneeling Drunkard's Plea
TTITLE10=Ralph Stanley - Will The Circle Be Unbroken
TTITLE11=Emmylou Harris - Song To John
EXTD=
EXTT0=
EXTT1=
EXTT2=
EXTT3=
EXTT4=
EXTT5=
EXTT6=
EXTT7=
EXTT8=
EXTT9=
EXTT10=
EXTT11=
PLAYORDER=
